<mxfile host="Electron" modified="2023-07-18T04:15:42.830Z" agent="Mozilla/5.0 (Macintosh; Intel Mac OS X 10_15_7) AppleWebKit/537.36 (KHTML, like Gecko) draw.io/21.6.1 Chrome/112.0.5615.204 Electron/24.6.1 Safari/537.36" etag="H9JDTf7R_uLP45-8DExJ" version="21.6.1" type="device">
  <diagram id="iJ-Jv0obQQe6eE2J4Dh-" name="Full-Solution">
    <mxGraphModel dx="2874" dy="564" grid="1" gridSize="10" guides="1" tooltips="1" connect="1" arrows="1" fold="1" page="1" pageScale="1" pageWidth="850" pageHeight="1100" math="0" shadow="0">
      <root>
        <mxCell id="0" />
        <mxCell id="1" parent="0" />
        <mxCell id="bVb_GX9Cb-DCjAQpeH2n-222" value="&amp;nbsp;AWS Account" style="points=[[0,0],[0.25,0],[0.5,0],[0.75,0],[1,0],[1,0.25],[1,0.5],[1,0.75],[1,1],[0.75,1],[0.5,1],[0.25,1],[0,1],[0,0.75],[0,0.5],[0,0.25]];outlineConnect=0;gradientColor=none;html=1;whiteSpace=wrap;fontSize=12;fontStyle=0;container=1;pointerEvents=0;collapsible=0;recursiveResize=0;shape=mxgraph.aws4.group;grIcon=mxgraph.aws4.group_account;strokeColor=#000000;fillColor=none;verticalAlign=top;align=left;spacingLeft=30;fontColor=#CD2264;dashed=0;labelPosition=center;verticalLabelPosition=middle;" parent="1" vertex="1">
          <mxGeometry x="300" y="2120" width="1180" height="850" as="geometry" />
        </mxCell>
        <mxCell id="bVb_GX9Cb-DCjAQpeH2n-223" value="&amp;nbsp;AWS Step Functions: AutoScalingGroup&amp;nbsp;workflow" style="points=[[0,0],[0.25,0],[0.5,0],[0.75,0],[1,0],[1,0.25],[1,0.5],[1,0.75],[1,1],[0.75,1],[0.5,1],[0.25,1],[0,1],[0,0.75],[0,0.5],[0,0.25]];outlineConnect=0;html=1;whiteSpace=wrap;fontSize=12;fontStyle=0;container=1;pointerEvents=0;collapsible=0;recursiveResize=0;shape=mxgraph.aws4.group;grIcon=mxgraph.aws4.group_aws_step_functions_workflow;strokeColor=#666666;fillColor=#f5f5f5;verticalAlign=top;align=left;spacingLeft=30;fontColor=#333333;dashed=0;" parent="bVb_GX9Cb-DCjAQpeH2n-222" vertex="1">
          <mxGeometry x="50" y="41" width="618" height="760" as="geometry" />
        </mxCell>
        <mxCell id="ND0kmMyunGqOiZSXUQJI-10" value="" style="points=[[0.25,0,0],[0.5,0,0],[0.75,0,0],[1,0.25,0],[1,0.5,0],[1,0.75,0],[0.75,1,0],[0.5,1,0],[0.25,1,0],[0,0.75,0],[0,0.5,0],[0,0.25,0]];shape=mxgraph.bpmn.task;whiteSpace=wrap;rectStyle=rounded;size=10;taskMarker=abstract;bpmnShapeType=subprocess;isLoopSub=1;outline=eventInt;symbol=parallelMultiple;fontColor=#000000;" parent="bVb_GX9Cb-DCjAQpeH2n-223" vertex="1">
          <mxGeometry x="163.53999999999996" y="320" width="236.46" height="180" as="geometry" />
        </mxCell>
        <mxCell id="bVb_GX9Cb-DCjAQpeH2n-225" value="" style="points=[[0.25,0,0],[0.5,0,0],[0.75,0,0],[1,0.25,0],[1,0.5,0],[1,0.75,0],[0.75,1,0],[0.5,1,0],[0.25,1,0],[0,0.75,0],[0,0.5,0],[0,0.25,0]];shape=mxgraph.bpmn.task;whiteSpace=wrap;rectStyle=rounded;size=10;taskMarker=abstract;bpmnShapeType=subprocess;isLoopSub=1;outline=eventInt;symbol=parallelMultiple;fontColor=#000000;" parent="bVb_GX9Cb-DCjAQpeH2n-223" vertex="1">
          <mxGeometry x="180" y="340" width="236.46" height="180" as="geometry" />
        </mxCell>
        <mxCell id="bVb_GX9Cb-DCjAQpeH2n-226" style="edgeStyle=orthogonalEdgeStyle;rounded=0;orthogonalLoop=1;jettySize=auto;html=1;entryX=0.506;entryY=0;entryDx=0;entryDy=0;fillColor=#d5e8d4;strokeColor=#82b366;exitX=0.5;exitY=1;exitDx=0;exitDy=0;exitPerimeter=0;entryPerimeter=0;" parent="bVb_GX9Cb-DCjAQpeH2n-223" source="bVb_GX9Cb-DCjAQpeH2n-280" target="sN-o8XzAyjOL8pdSvYDB-5" edge="1">
          <mxGeometry relative="1" as="geometry">
            <mxPoint x="282" y="161" as="sourcePoint" />
            <mxPoint x="282.1764705882356" y="199.64705882352928" as="targetPoint" />
          </mxGeometry>
        </mxCell>
        <mxCell id="bVb_GX9Cb-DCjAQpeH2n-234" style="edgeStyle=orthogonalEdgeStyle;rounded=0;orthogonalLoop=1;jettySize=auto;html=1;entryX=0.5;entryY=0;entryDx=0;entryDy=0;fillColor=#d5e8d4;strokeColor=#82b366;exitX=0.5;exitY=1;exitDx=0;exitDy=0;exitPerimeter=0;" parent="bVb_GX9Cb-DCjAQpeH2n-223" source="bVb_GX9Cb-DCjAQpeH2n-225" target="bVb_GX9Cb-DCjAQpeH2n-238" edge="1">
          <mxGeometry relative="1" as="geometry">
            <Array as="points">
              <mxPoint x="298" y="590" />
              <mxPoint x="298" y="590" />
            </Array>
            <mxPoint x="307.99588235294146" y="669.4070588235293" as="sourcePoint" />
          </mxGeometry>
        </mxCell>
        <mxCell id="bVb_GX9Cb-DCjAQpeH2n-235" value="Start Automation per resource" style="sketch=0;outlineConnect=0;fontColor=#232F3E;gradientColor=none;fillColor=#B0084D;strokeColor=none;dashed=0;verticalLabelPosition=middle;verticalAlign=middle;align=left;html=1;fontSize=12;fontStyle=0;aspect=fixed;pointerEvents=1;shape=mxgraph.aws4.run_command;labelPosition=right;" parent="bVb_GX9Cb-DCjAQpeH2n-223" vertex="1">
          <mxGeometry x="190.00000000000006" y="365" width="42.55" height="30" as="geometry" />
        </mxCell>
        <mxCell id="bVb_GX9Cb-DCjAQpeH2n-237" value="" style="edgeStyle=orthogonalEdgeStyle;rounded=0;orthogonalLoop=1;jettySize=auto;html=1;entryX=0;entryY=0.5;entryDx=0;entryDy=0;fillColor=#d5e8d4;strokeColor=#82b366;" parent="bVb_GX9Cb-DCjAQpeH2n-223" source="bVb_GX9Cb-DCjAQpeH2n-238" target="bVb_GX9Cb-DCjAQpeH2n-241" edge="1">
          <mxGeometry relative="1" as="geometry">
            <mxPoint x="219.76058823529414" y="669.4070588235293" as="targetPoint" />
            <Array as="points">
              <mxPoint x="298" y="700" />
            </Array>
          </mxGeometry>
        </mxCell>
        <mxCell id="bVb_GX9Cb-DCjAQpeH2n-238" value="Register Command Success/Fail for &#xa;each item in the Iteration Array" style="rhombus;verticalAlign=middle;labelPosition=left;verticalLabelPosition=middle;align=right;" parent="bVb_GX9Cb-DCjAQpeH2n-223" vertex="1">
          <mxGeometry x="283.23000000000013" y="619.76" width="30" height="30" as="geometry" />
        </mxCell>
        <mxCell id="bVb_GX9Cb-DCjAQpeH2n-241" value="&lt;font&gt;End&lt;/font&gt;" style="shape=image;html=1;verticalAlign=top;verticalLabelPosition=bottom;labelBackgroundColor=none;imageAspect=0;aspect=fixed;image=https://cdn0.iconfinder.com/data/icons/iconsweets2/40/finish_flag.png;fontColor=#000000;imageBackground=#97D077;opacity=50;" parent="bVb_GX9Cb-DCjAQpeH2n-223" vertex="1">
          <mxGeometry x="400" y="679.76" width="40" height="40" as="geometry" />
        </mxCell>
        <mxCell id="bVb_GX9Cb-DCjAQpeH2n-280" value="&amp;nbsp;Create a List of resources to iterate against" style="sketch=0;points=[[0,0,0],[0.25,0,0],[0.5,0,0],[0.75,0,0],[1,0,0],[0,1,0],[0.25,1,0],[0.5,1,0],[0.75,1,0],[1,1,0],[0,0.25,0],[0,0.5,0],[0,0.75,0],[1,0.25,0],[1,0.5,0],[1,0.75,0]];outlineConnect=0;fontColor=#232F3E;gradientColor=#F78E04;gradientDirection=north;fillColor=#D05C17;strokeColor=#ffffff;dashed=0;verticalLabelPosition=middle;verticalAlign=middle;align=left;html=1;fontSize=12;fontStyle=0;aspect=fixed;shape=mxgraph.aws4.resourceIcon;resIcon=mxgraph.aws4.lambda;labelPosition=right;" parent="bVb_GX9Cb-DCjAQpeH2n-223" vertex="1">
          <mxGeometry x="262" y="120" width="40" height="40" as="geometry" />
        </mxCell>
        <mxCell id="dOTERbZoWUy5YyVQ7KNz-4" style="edgeStyle=orthogonalEdgeStyle;rounded=0;orthogonalLoop=1;jettySize=auto;html=1;" parent="bVb_GX9Cb-DCjAQpeH2n-223" source="dOTERbZoWUy5YyVQ7KNz-2" target="bVb_GX9Cb-DCjAQpeH2n-280" edge="1">
          <mxGeometry relative="1" as="geometry">
            <Array as="points">
              <mxPoint x="282" y="86" />
            </Array>
          </mxGeometry>
        </mxCell>
        <mxCell id="dOTERbZoWUy5YyVQ7KNz-2" value="Start" style="ellipse;html=1;shape=endState;fillColor=#97D077;strokeColor=#00ff00;color=#00ff00;labelPosition=center;verticalLabelPosition=top;align=center;verticalAlign=bottom;" parent="bVb_GX9Cb-DCjAQpeH2n-223" vertex="1">
          <mxGeometry x="109" y="70" width="30" height="30" as="geometry" />
        </mxCell>
        <mxCell id="sN-o8XzAyjOL8pdSvYDB-5" value="" style="html=1;verticalLabelPosition=bottom;align=center;labelBackgroundColor=#ffffff;verticalAlign=top;strokeWidth=2;strokeColor=#0080F0;shadow=0;dashed=0;shape=mxgraph.ios7.icons.map;" parent="bVb_GX9Cb-DCjAQpeH2n-223" vertex="1">
          <mxGeometry x="267" y="240" width="30" height="30" as="geometry" />
        </mxCell>
        <mxCell id="bVb_GX9Cb-DCjAQpeH2n-253" style="edgeStyle=orthogonalEdgeStyle;rounded=0;orthogonalLoop=1;jettySize=auto;html=1;strokeColor=#82b366;fontColor=#000000;fillColor=#d5e8d4;exitX=0.567;exitY=0.889;exitDx=0;exitDy=0;exitPerimeter=0;entryX=0.5;entryY=0;entryDx=0;entryDy=0;entryPerimeter=0;" parent="bVb_GX9Cb-DCjAQpeH2n-223" source="sN-o8XzAyjOL8pdSvYDB-5" target="ND0kmMyunGqOiZSXUQJI-10" edge="1">
          <mxGeometry relative="1" as="geometry">
            <Array as="points">
              <mxPoint x="282" y="267" />
            </Array>
            <mxPoint x="295" y="340" as="targetPoint" />
          </mxGeometry>
        </mxCell>
        <mxCell id="ND0kmMyunGqOiZSXUQJI-2" value="Success" style="rhombus;verticalAlign=middle;labelPosition=left;verticalLabelPosition=middle;align=right;" parent="bVb_GX9Cb-DCjAQpeH2n-223" vertex="1">
          <mxGeometry x="248.0000000000001" y="450" width="30" height="30" as="geometry" />
        </mxCell>
        <mxCell id="ND0kmMyunGqOiZSXUQJI-5" value="Failure" style="rhombus;verticalAlign=middle;labelPosition=right;verticalLabelPosition=middle;align=left;" parent="bVb_GX9Cb-DCjAQpeH2n-223" vertex="1">
          <mxGeometry x="335.8300000000001" y="450" width="30" height="30" as="geometry" />
        </mxCell>
        <mxCell id="SRTsr6xJV_xWnFALC3YG-1" value="" style="shape=image;verticalLabelPosition=bottom;labelBackgroundColor=default;verticalAlign=top;aspect=fixed;imageAspect=0;image=data:image/png,iVBORw0KGgoAAAANSUhEUgAAAD4AAAA8CAYAAAA+CQlPAAAAAXNSR0IArs4c6QAAAIRlWElmTU0AKgAAAAgABQESAAMAAAABAAEAAAEaAAUAAAABAAAASgEbAAUAAAABAAAAUgEoAAMAAAABAAIAAIdpAAQAAAABAAAAWgAAAAAAAACQAAAAAQAAAJAAAAABAAOgAQADAAAAAQABAACgAgAEAAAAAQAAAD6gAwAEAAAAAQAAADwAAAAATduYDgAAAAlwSFlzAAAWJQAAFiUBSVIk8AAABBRJREFUaAXtmk1ME0EUgF9LWwoWBMSIETCoB4ULYJQEjT8YTcTogcQYPJigBy/+xIPxgJ6EgxpjolxMjCQeRGOCBxM8+G+UhJiAF1QO/mMUbQCh0P/WvsE1taG7s53Zx0/3XXa3O/vmffPmvXm7HQvE5Pvi5ige00WW/mq1WNMFNpHTBE8ckfl+bXp8vns4kc/0eOKIzPfrtPW4bSY8a19fCjmnd4C9chlERr3gvfMaPOcfA/hDZOaQe9xesxwK7h6CjOI8mLzxCoK9g+A6ugny2xvJoLEjco/nNG+HyNA4uLe0QXTMx2CzD9dC7tl6cGxcAYEXH0gGgN7jVcXg63rzDxopvR29DNZeXUwCjZ2Qg2NM4zSPl4ySqevIyGT8z4aek4NjInPWlwNOb0uuE2wVRbDwcgNEPH7w339rKGy8cvIY95x7BLayRSymMa5RIuM+GG26CRH3RLxthp6TexyXLIQcbrjOwHz3+sFdcwkCz94bCpqonB78rwVK9g69GyL1tDIAFjwR/QLj3FfF4tRiYeoU3dKP0WgUfh/rBN/tPiHd+AVGSozbSvMBoT0XYtWXgeI6WQfYlwyRAq4YQgGu9CV6nLEYFzVc9Hluj2McJ5tmjg1lzA6citNJNBIFX2z9Dn8Zme429284owIvP3K3V2vIDY5FhlbySgauGDBx8YlymtJRZihxgyvJK5XOi362gMVqbMbXO5Lc4HoV622vFkq8ukKxUOJd6mYNOE8oaQ0ArvPSwVEpxrBWHCczDhOcmoiEEurVaxu3x8eOd0JGyfTFA2Z1R21Z0gJGyepq4NT3uMG9t5KXiS6oUwWnhuLpzyxgtEZJLetSFTBaNuq5zz3VebKuVuITLWD0gGm15QYXybo8BYzoqoGgqINXuMF5FabaTm3V4NWJBQyvzBpwtVWDF0ZPO25w0amoVcDoMVpGW25wtalIVcBg8sTX0kC3+KspN7jaVKQqYBDcA7F3cgngZgEjI2601nEZfcjSwT3V1TrEZURJfmrtRO9hH3qWLLX+pIDjOzDve3C8MVjY4BedVL7qxOtJ5XzGYhz/C0exrV4C1sIFqdgu9Aw9eKYN8tr3Q0HnQWa4c3cFFPacAMfmlUIgeh8mB3ed2gbOXeUwdqYLhla1gHtrG4Q/DbPBoPQ8OXjW3kq2I2LyajfbFRHq/8H+D7O6MiFz5xq9jku5PTm4NS8LwoOj/xkc/jp1jfeohBw82DfIdkTgbghFshqr2Wmw75vyk+FHKcuZHivHWx+wxFb49Aib8rgfBreG+B8OkO14QnvpPd7zme2GwOmefWAd2NeWgOfKcxhp6tAzfsJtyT2OFgcRfs81YeNFFJB7XMRYmc+a4DJHcy7oMj0+F7wk00bT4zJHcy7oSluP/wGvalzhiEGkIAAAAABJRU5ErkJggg==;" vertex="1" parent="bVb_GX9Cb-DCjAQpeH2n-223">
          <mxGeometry width="31" height="30" as="geometry" />
        </mxCell>
        <mxCell id="bVb_GX9Cb-DCjAQpeH2n-256" style="edgeStyle=orthogonalEdgeStyle;rounded=0;orthogonalLoop=1;jettySize=auto;html=1;fontColor=#000000;strokeColor=#005700;dashed=1;fillColor=#008a00;" parent="bVb_GX9Cb-DCjAQpeH2n-222" source="bVb_GX9Cb-DCjAQpeH2n-235" target="g7KUOkAP7T1-D5GJ6F_d-3" edge="1">
          <mxGeometry relative="1" as="geometry">
            <mxPoint x="762" y="368" as="targetPoint" />
            <Array as="points">
              <mxPoint x="540" y="435" />
              <mxPoint x="540" y="435" />
            </Array>
          </mxGeometry>
        </mxCell>
        <mxCell id="bVb_GX9Cb-DCjAQpeH2n-258" value="" style="swimlane;startSize=0;" parent="bVb_GX9Cb-DCjAQpeH2n-222" vertex="1">
          <mxGeometry x="680" y="173" width="450" height="497" as="geometry" />
        </mxCell>
        <mxCell id="bVb_GX9Cb-DCjAQpeH2n-259" value="" style="sketch=0;points=[[0,0,0],[0.25,0,0],[0.5,0,0],[0.75,0,0],[1,0,0],[0,1,0],[0.25,1,0],[0.5,1,0],[0.75,1,0],[1,1,0],[0,0.25,0],[0,0.5,0],[0,0.75,0],[1,0.25,0],[1,0.5,0],[1,0.75,0]];points=[[0,0,0],[0.25,0,0],[0.5,0,0],[0.75,0,0],[1,0,0],[0,1,0],[0.25,1,0],[0.5,1,0],[0.75,1,0],[1,1,0],[0,0.25,0],[0,0.5,0],[0,0.75,0],[1,0.25,0],[1,0.5,0],[1,0.75,0]];outlineConnect=0;fontColor=#232F3E;gradientColor=#F34482;gradientDirection=north;fillColor=#BC1356;strokeColor=#ffffff;dashed=0;verticalLabelPosition=bottom;verticalAlign=top;align=left;html=1;fontSize=12;fontStyle=0;aspect=fixed;shape=mxgraph.aws4.resourceIcon;resIcon=mxgraph.aws4.systems_manager;" parent="bVb_GX9Cb-DCjAQpeH2n-258" vertex="1">
          <mxGeometry width="40" height="40" as="geometry" />
        </mxCell>
        <mxCell id="bVb_GX9Cb-DCjAQpeH2n-260" style="edgeStyle=orthogonalEdgeStyle;rounded=0;orthogonalLoop=1;jettySize=auto;html=1;endArrow=classicThin;endFill=1;" parent="bVb_GX9Cb-DCjAQpeH2n-258" source="g7KUOkAP7T1-D5GJ6F_d-3" target="bVb_GX9Cb-DCjAQpeH2n-262" edge="1">
          <mxGeometry relative="1" as="geometry">
            <Array as="points">
              <mxPoint x="74" y="159" />
            </Array>
          </mxGeometry>
        </mxCell>
        <mxCell id="bVb_GX9Cb-DCjAQpeH2n-261" value="Run Command" style="sketch=0;outlineConnect=0;fontColor=#232F3E;gradientColor=none;fillColor=#B0084D;strokeColor=none;dashed=0;verticalLabelPosition=bottom;verticalAlign=top;align=center;html=1;fontSize=12;fontStyle=0;aspect=fixed;pointerEvents=1;shape=mxgraph.aws4.run_command;" parent="bVb_GX9Cb-DCjAQpeH2n-258" vertex="1">
          <mxGeometry x="230" y="233" width="78" height="55" as="geometry" />
        </mxCell>
        <mxCell id="g7KUOkAP7T1-D5GJ6F_d-7" style="edgeStyle=orthogonalEdgeStyle;rounded=0;orthogonalLoop=1;jettySize=auto;html=1;fontColor=#000000;" parent="bVb_GX9Cb-DCjAQpeH2n-258" source="bVb_GX9Cb-DCjAQpeH2n-262" target="g7KUOkAP7T1-D5GJ6F_d-6" edge="1">
          <mxGeometry relative="1" as="geometry">
            <Array as="points">
              <mxPoint x="160" y="349" />
            </Array>
          </mxGeometry>
        </mxCell>
        <mxCell id="ND0kmMyunGqOiZSXUQJI-9" style="edgeStyle=orthogonalEdgeStyle;rounded=0;orthogonalLoop=1;jettySize=auto;html=1;endArrow=classicThin;endFill=1;" parent="bVb_GX9Cb-DCjAQpeH2n-258" source="bVb_GX9Cb-DCjAQpeH2n-262" target="ND0kmMyunGqOiZSXUQJI-7" edge="1">
          <mxGeometry relative="1" as="geometry">
            <Array as="points">
              <mxPoint x="144" y="347" />
              <mxPoint x="118" y="347" />
            </Array>
          </mxGeometry>
        </mxCell>
        <mxCell id="bVb_GX9Cb-DCjAQpeH2n-262" value="Command Document" style="sketch=0;outlineConnect=0;fontColor=#232F3E;gradientColor=none;fillColor=#B0084D;strokeColor=none;dashed=0;verticalLabelPosition=top;verticalAlign=bottom;align=center;html=1;fontSize=12;fontStyle=0;aspect=fixed;pointerEvents=1;shape=mxgraph.aws4.documents;labelPosition=center;" parent="bVb_GX9Cb-DCjAQpeH2n-258" vertex="1">
          <mxGeometry x="120" y="130" width="47.59" height="58" as="geometry" />
        </mxCell>
        <mxCell id="g7KUOkAP7T1-D5GJ6F_d-4" style="edgeStyle=orthogonalEdgeStyle;rounded=0;orthogonalLoop=1;jettySize=auto;html=1;fontColor=#000000;" parent="bVb_GX9Cb-DCjAQpeH2n-258" source="bVb_GX9Cb-DCjAQpeH2n-262" target="bVb_GX9Cb-DCjAQpeH2n-261" edge="1">
          <mxGeometry relative="1" as="geometry">
            <Array as="points">
              <mxPoint x="210" y="167" />
              <mxPoint x="210" y="268" />
            </Array>
          </mxGeometry>
        </mxCell>
        <mxCell id="g7KUOkAP7T1-D5GJ6F_d-3" value="Automation" style="sketch=0;outlineConnect=0;fontColor=#232F3E;gradientColor=none;fillColor=#B0084D;strokeColor=none;dashed=0;verticalLabelPosition=bottom;verticalAlign=top;align=center;html=1;fontSize=12;fontStyle=0;aspect=fixed;pointerEvents=1;shape=mxgraph.aws4.automation;labelBackgroundColor=none;opacity=50;" parent="bVb_GX9Cb-DCjAQpeH2n-258" vertex="1">
          <mxGeometry x="40" y="233.5" width="68" height="68" as="geometry" />
        </mxCell>
        <mxCell id="g7KUOkAP7T1-D5GJ6F_d-6" value="&lt;div&gt;Send Task&lt;/div&gt;&lt;div&gt;Failure&lt;/div&gt;" style="sketch=0;outlineConnect=0;fontColor=#232F3E;gradientColor=none;fillColor=#D45B07;strokeColor=none;dashed=0;verticalLabelPosition=middle;verticalAlign=middle;align=left;html=1;fontSize=12;fontStyle=0;aspect=fixed;pointerEvents=1;shape=mxgraph.aws4.ecs_task;labelBackgroundColor=none;opacity=50;labelPosition=right;" parent="bVb_GX9Cb-DCjAQpeH2n-258" vertex="1">
          <mxGeometry x="208.20999999999998" y="387" width="37" height="48" as="geometry" />
        </mxCell>
        <mxCell id="j83w9XTxs0EsQR-T_xci-1" value="AWS-RunShellScript&lt;br&gt;Document" style="sketch=0;outlineConnect=0;fontColor=#232F3E;gradientColor=none;fillColor=#B0084D;strokeColor=none;dashed=0;verticalLabelPosition=top;verticalAlign=bottom;align=center;html=1;fontSize=12;fontStyle=0;aspect=fixed;pointerEvents=1;shape=mxgraph.aws4.documents;labelPosition=center;" parent="bVb_GX9Cb-DCjAQpeH2n-258" vertex="1">
          <mxGeometry x="245.21000000000004" y="130" width="47.59" height="58" as="geometry" />
        </mxCell>
        <mxCell id="j83w9XTxs0EsQR-T_xci-2" style="edgeStyle=orthogonalEdgeStyle;rounded=0;orthogonalLoop=1;jettySize=auto;html=1;endArrow=oval;endFill=1;" parent="bVb_GX9Cb-DCjAQpeH2n-258" source="bVb_GX9Cb-DCjAQpeH2n-261" target="j83w9XTxs0EsQR-T_xci-1" edge="1">
          <mxGeometry relative="1" as="geometry" />
        </mxCell>
        <mxCell id="ND0kmMyunGqOiZSXUQJI-7" value="&lt;div&gt;Send Task &lt;br&gt;&lt;/div&gt;&lt;div&gt;Success&lt;/div&gt;" style="sketch=0;outlineConnect=0;fillColor=#d5e8d4;strokeColor=#82b366;dashed=0;verticalLabelPosition=middle;verticalAlign=middle;align=right;html=1;fontSize=12;fontStyle=0;aspect=fixed;pointerEvents=1;shape=mxgraph.aws4.ecs_task;labelBackgroundColor=none;opacity=50;labelPosition=left;" parent="bVb_GX9Cb-DCjAQpeH2n-258" vertex="1">
          <mxGeometry x="100" y="387" width="37" height="48" as="geometry" />
        </mxCell>
        <mxCell id="g7KUOkAP7T1-D5GJ6F_d-8" style="edgeStyle=orthogonalEdgeStyle;rounded=0;orthogonalLoop=1;jettySize=auto;html=1;fontColor=#000000;dashed=1;fillColor=#ffe6cc;strokeColor=#d79b00;entryX=0.5;entryY=0;entryDx=0;entryDy=0;" parent="bVb_GX9Cb-DCjAQpeH2n-222" source="g7KUOkAP7T1-D5GJ6F_d-6" target="ND0kmMyunGqOiZSXUQJI-5" edge="1">
          <mxGeometry relative="1" as="geometry">
            <Array as="points">
              <mxPoint x="907" y="630" />
              <mxPoint x="699" y="630" />
              <mxPoint x="699" y="470" />
              <mxPoint x="401" y="470" />
            </Array>
            <mxPoint x="569" y="460" as="targetPoint" />
          </mxGeometry>
        </mxCell>
        <mxCell id="ND0kmMyunGqOiZSXUQJI-8" style="edgeStyle=orthogonalEdgeStyle;rounded=0;orthogonalLoop=1;jettySize=auto;html=1;entryX=0.5;entryY=0;entryDx=0;entryDy=0;endArrow=classicThin;endFill=1;fillColor=#d5e8d4;strokeColor=#82b366;dashed=1;" parent="bVb_GX9Cb-DCjAQpeH2n-222" source="ND0kmMyunGqOiZSXUQJI-7" target="ND0kmMyunGqOiZSXUQJI-2" edge="1">
          <mxGeometry relative="1" as="geometry">
            <Array as="points">
              <mxPoint x="799" y="620" />
              <mxPoint x="710" y="620" />
              <mxPoint x="710" y="460" />
              <mxPoint x="313" y="460" />
            </Array>
          </mxGeometry>
        </mxCell>
        <mxCell id="SRTsr6xJV_xWnFALC3YG-2" value="" style="shape=image;verticalLabelPosition=bottom;labelBackgroundColor=default;verticalAlign=top;aspect=fixed;imageAspect=0;image=data:image/png,iVBORw0KGgoAAAANSUhEUgAAADwAAAA8CAYAAAA6/NlyAAAAAXNSR0IArs4c6QAAAIRlWElmTU0AKgAAAAgABQESAAMAAAABAAEAAAEaAAUAAAABAAAASgEbAAUAAAABAAAAUgEoAAMAAAABAAIAAIdpAAQAAAABAAAAWgAAAAAAAACQAAAAAQAAAJAAAAABAAOgAQADAAAAAQABAACgAgAEAAAAAQAAADygAwAEAAAAAQAAADwAAAAAmecIyQAAAAlwSFlzAAAWJQAAFiUBSVIk8AAABEFJREFUaAXtmmlo1EAUx//Z7WbXdrvaitZ6YbVeeOMBKtRqxQMRwRMUFQT1k4iIB2ihoF9ErGgVUUEoqHgi4ongbQsWRMWjiuIJ1ru47dbu1TgzdBZX22TapE3azYOQ3czLy/vlP5N5mV2possWBQlkjgRiZag2cHtX3FbYVrid3QG7S7czQf/DSTiFk/67BY0ccPZOg2fBSEgOqREPcw4rdQpqTz9C9EOlUALCwBQ2dVOeUFAznAK7bgpdVhiYK/u561ahwK3l1O3r9ib1OuuOYYkMnRYYPpYFTju+FOkXVxneUSwJ7BrXG+68AZDH9IJ7+iBDoS0J7N2Yh+iXKkTe/oB3w5T2DczUzemHwL67qC68Bdfw7oaqbDmFqaJU3ZriMja/Rt4Yq7KlgJm6k7KZuqiNAKSoqN5dr/K0gYZ0bUsBM3W/VjN1OR2tooxU2TLAMXWL7oCpy4m5yiN6wG2AysKVFr/+33vPolFIIjW2qKnVvQ2py+Myldflsid28NpLfrhZe13AHffOhUQroibav3UvV9effzleXR63XuVORfOYynqgdQFT2OqdN9jGc1PbN1b3qqnL4xmlsi5gnoyePVc39OAjvGtyVENFK37BPbGvLpVNB07q2xmKokAe3YttqsT1jc6sziJuDfqYDvz7xEPQrbXMMtOSDdxCdyDhFDZ9DHMhHV1SIOdkw9ndB6UmhPDTzwiXfQB5onEXQ/amA0vpyfAVzIBnIV0Rje9wEbISWVVwBcGLzw2BpUFMBXb07IT0cyvgzEhFYP891J55zF4UpBQZ8oQ+8K6dhLQji1G14zr+rc6aewd0A8sTs+DFlKZfnyzQpRUvgcPnwY9ZhxB5UhGLoQQjTNXg5XL4ds1hy8ORl18MUVoXcOT9T6JEFtti2ap8oAUG7abUOpAXD9ewTFQuOxoHG3c6qaH968/DNTQTqQUzEbxUrntM6wL+PrYwLr+mfPHMH4FwOVHt6gv10+iLw57brGvTMjR8/726v0Zr/FNCw9nIZteQTIRK3wqFDJW+Y36uod2E/NWcTAOWkl1QAiG13GJt3E9KlmPHmvvBNODoJz/oi4OIcT96jl4zDTh06zXkyf1B52Eto+NdqatD6M5rLVfNdtOAAwdLIbmd8O2YrZpkEnmSp6wcj9pTj1D3LaDqK9JoGnCU/KpQte0aOswZho6HFzWotHvGIKSfXcHWqf0FV0V4NH10TUua0TUcag6UMI/U/GlwTx2I0M1Xf1VaWXANzkCYFCSVy49B+VmjEU2s2VRgmiKFpnNxyuoJkHOzCfgA8vIQRvhZBX6tLcHvk2RxgMzFRpnpwBSEdm//5gtGManGMW0Mq2bVgo0JByzcpemvBtTo2rLVjOcmkpcwMF0Ip8b/3CISvDV8+M83oteS7H/Ei96qNuqXcA8tG7iN9lThtG2FhW9VG3W0FW6jwgmnnXAK/wG9n2sbGTRETwAAAABJRU5ErkJggg==;" vertex="1" parent="bVb_GX9Cb-DCjAQpeH2n-222">
          <mxGeometry width="30" height="30" as="geometry" />
        </mxCell>
        <mxCell id="SRTsr6xJV_xWnFALC3YG-4" value="&amp;nbsp; AWS Systems Manager" style="text;html=1;strokeColor=none;fillColor=none;align=center;verticalAlign=middle;whiteSpace=wrap;rounded=0;" vertex="1" parent="bVb_GX9Cb-DCjAQpeH2n-222">
          <mxGeometry x="710" y="171" width="150" height="30" as="geometry" />
        </mxCell>
        <mxCell id="sN-o8XzAyjOL8pdSvYDB-6" value="&lt;div&gt;Run SSM Command Map &lt;br&gt;&lt;/div&gt;" style="text;html=1;" parent="1" vertex="1">
          <mxGeometry x="652" y="2402" width="260" height="30" as="geometry" />
        </mxCell>
      </root>
    </mxGraphModel>
  </diagram>
</mxfile>
